<svg width="500" height="500" viewBox="0 0 500 500" fill="none" xmlns="http://www.w3.org/2000/svg">
<g clip-path="url(#clip0_1_2)">
<mask id="mask0_1_2" style="mask-type:alpha" maskUnits="userSpaceOnUse" x="0" y="0" width="500" height="500">
<circle cx="250" cy="250" r="250" fill="#373737"/>
</mask>
<g mask="url(#mask0_1_2)">
<circle cx="250" cy="250" r="249.5" transform="rotate(16.8675 250 250)" fill="#D9D9D9" stroke="#BCBCBC"/>
<path d="M330.374 -15.083L250 250L158.82 -12.7613L330.374 -15.083Z" fill="#BD2778"/>
<path d="M526.959 245.223L250 250L472.147 82.6442L526.959 245.223Z" fill="#35E3CE"/>
<path d="M471.008 83.0135L250 250L330.955 -16.0894L471.008 83.0135Z" fill="#FF5555"/>
<path d="M341.06 511.605L250 250L478.379 408.746L341.06 511.605Z" fill="#7738FE"/>
<path d="M476.396 409.605L250 250L528.103 246.012L476.396 409.605Z" fill="#F1FF55"/>
<path d="M169.626 515.083L250 250L341.18 512.761L169.626 515.083Z" fill="#20D3FA"/>
<path d="M-26.9589 254.777L250 250L27.853 417.356L-26.9589 254.777Z" fill="#FF8F27"/>
<path d="M28.992 416.987L250 250L169.045 516.089L28.992 416.987Z" fill="#FFCF55"/>
<path d="M158.94 -11.6047L250 250L21.6211 91.2537L158.94 -11.6047Z" fill="#3C8AFF"/>
<path d="M23.6038 90.395L250 250L-28.1032 253.988L23.6038 90.395Z" fill="#56D163"/>
<path d="M116.409 95.1794L142.466 120.544L139.395 123.699L116.646 101.555L116.497 101.708L114.529 112.181L111.322 109.06L113.338 98.3348L116.409 95.1794ZM158.39 104.897C156.524 106.814 154.413 107.939 152.057 108.272C149.692 108.597 147.167 108.146 144.48 106.918C141.784 105.682 139.02 103.685 136.187 100.927C133.371 98.1862 131.313 95.4892 130.014 92.8364C128.714 90.1669 128.194 87.6459 128.455 85.2734C128.716 82.8842 129.771 80.7396 131.62 78.8396C133.47 76.9396 135.581 75.8313 137.954 75.5147C140.327 75.1814 142.861 75.6327 145.556 76.8688C148.252 78.0881 151.007 80.0683 153.823 82.8095C156.656 85.5672 158.727 88.2765 160.035 90.9376C161.335 93.5904 161.854 96.103 161.593 98.4755C161.324 100.84 160.256 102.98 158.39 104.897ZM155.591 102.173C157.44 100.273 157.961 97.905 157.153 95.0698C156.344 92.2346 154.244 89.1657 150.851 85.8631C148.595 83.6668 146.438 82.0384 144.381 80.978C142.333 79.909 140.455 79.4195 138.749 79.5094C137.051 79.5909 135.591 80.2593 134.369 81.5147C132.536 83.3977 132.032 85.7735 132.858 88.6419C133.675 91.5021 135.775 94.5794 139.16 97.8738C141.416 100.07 143.564 101.698 145.604 102.759C147.644 103.82 149.509 104.305 151.199 104.216C152.897 104.117 154.361 103.436 155.591 102.173Z" fill="black"/>
<path d="M62.9918 189.637C63.3273 188.184 63.9287 186.79 64.7957 185.455C65.6628 184.12 66.8598 182.991 68.3866 182.07C69.902 181.146 71.821 180.561 74.1436 180.314C76.4663 180.066 79.2568 180.306 82.5152 181.031C85.6695 181.733 88.4046 182.657 90.7204 183.803C93.0273 184.935 94.8937 186.247 96.3196 187.741C97.7482 189.223 98.7183 190.858 99.23 192.645C99.7443 194.421 99.779 196.308 99.3341 198.307C98.8918 200.295 98.1042 201.981 96.9714 203.366C95.8295 204.737 94.4432 205.762 92.8124 206.442C91.1727 207.108 89.386 207.371 87.4525 207.232L88.3936 203.003C90.1077 202.984 91.6222 202.527 92.9372 201.631C94.2433 200.721 95.1046 199.331 95.5212 197.459C96.1306 194.72 95.4156 192.293 93.3761 190.178C91.3392 188.051 88.137 186.502 83.7694 185.53L83.7077 185.807C84.5343 186.67 85.201 187.625 85.7078 188.672C86.2146 189.718 86.5378 190.827 86.6774 191.998C86.8169 193.169 86.7504 194.367 86.4778 195.592C86.0253 197.625 85.1073 199.379 83.7241 200.854C82.3319 202.315 80.6387 203.357 78.6446 203.98C76.6415 204.589 74.496 204.639 72.2082 204.13C70.036 203.647 68.1567 202.719 66.5702 201.347C64.9747 199.962 63.8364 198.265 63.1553 196.258C62.4767 194.24 62.4222 192.033 62.9918 189.637ZM66.8047 190.486C66.4807 191.941 66.5528 193.334 67.021 194.663C67.4803 195.978 68.2464 197.112 69.3194 198.067C70.3835 199.007 71.655 199.641 73.134 199.971C74.613 200.3 76.031 200.276 77.3883 199.899C78.7365 199.508 79.8948 198.826 80.8632 197.853C81.8226 196.866 82.4643 195.644 82.7883 194.188C83.0326 193.091 83.0464 192.021 82.8298 190.978C82.6016 189.933 82.1904 188.974 81.5962 188.102C80.9931 187.216 80.257 186.464 79.388 185.846C78.5074 185.226 77.5414 184.799 76.4899 184.565C75.1034 184.256 73.7289 184.302 72.3666 184.702C71.0068 185.091 69.8215 185.785 68.8108 186.785C67.8026 187.773 67.1339 189.007 66.8047 190.486Z" fill="black"/>
<path d="M105.348 290.884C106.241 293.153 106.628 295.316 106.509 297.373C106.375 299.423 105.789 301.212 104.75 302.741C103.699 304.274 102.258 305.395 100.425 306.104C98.9978 306.679 97.5656 306.918 96.1285 306.823C94.6804 306.731 93.3537 306.35 92.1483 305.68C90.9276 305.003 89.9642 304.091 89.2582 302.944L89.06 303.022C89.279 304.806 88.8778 306.453 87.8563 307.962C86.8238 309.475 85.4078 310.58 83.6082 311.276C81.8943 311.963 80.1865 312.133 78.4849 311.786C76.7832 311.438 75.2378 310.647 73.8486 309.413C72.4551 308.168 71.368 306.554 70.5873 304.572C69.8154 302.611 69.5168 300.706 69.6916 298.856C69.8664 297.006 70.4577 295.374 71.4655 293.959C72.4689 292.534 73.8275 291.477 75.5414 290.79C77.341 290.094 79.1365 289.953 80.928 290.367C82.7041 290.774 84.1136 291.689 85.1567 293.11L85.3549 293.032C85.0938 291.722 85.1833 290.415 85.6233 289.11C86.0524 287.808 86.7633 286.625 87.7559 285.56C88.7376 284.499 89.9422 283.681 91.3697 283.107C93.2023 282.398 95.0276 282.251 96.8454 282.668C98.6479 283.078 100.297 283.987 101.793 285.395C103.274 286.796 104.458 288.626 105.348 290.884ZM101.713 292.315C101.11 290.784 100.342 289.56 99.4081 288.643C98.4745 287.726 97.4368 287.142 96.2951 286.892C95.1534 286.642 93.9746 286.75 92.7588 287.216C91.4855 287.73 90.4867 288.505 89.7623 289.541C89.0379 290.576 88.6161 291.767 88.4967 293.111C88.3731 294.445 88.5931 295.828 89.1569 297.259C89.7251 298.702 90.5134 299.88 91.5218 300.794C92.5259 301.696 93.646 302.279 94.8821 302.543C96.1139 302.796 97.3664 302.665 98.6397 302.151C99.8556 301.685 100.798 300.976 101.467 300.026C102.132 299.065 102.491 297.925 102.544 296.606C102.597 295.288 102.32 293.857 101.713 292.315ZM85.6545 298.639C85.1774 297.427 84.5123 296.449 83.659 295.703C82.8014 294.947 81.8313 294.47 80.7487 294.273C79.6661 294.076 78.5388 294.202 77.367 294.651C76.2259 295.113 75.3354 295.775 74.6955 296.638C74.0446 297.505 73.6721 298.497 73.5782 299.616C73.4732 300.738 73.6658 301.922 74.1559 303.166C74.6546 304.433 75.3273 305.447 76.1739 306.207C77.0094 306.972 77.9587 307.445 79.0216 307.624C80.0735 307.808 81.1701 307.669 82.3112 307.207C83.483 306.758 84.3999 306.098 85.0618 305.227C85.7194 304.344 86.104 303.334 86.2156 302.196C86.3273 301.058 86.1402 299.872 85.6545 298.639Z" fill="black"/>
<path d="M173.084 372.579L141.764 390.43L141.607 390.667L157.242 401.016L155.086 404.274L135.66 391.416L137.934 387.981L169.234 370.031L173.084 372.579Z" fill="black"/>
<path d="M249.58 394.136C251.071 394.181 252.558 394.485 254.042 395.051C255.526 395.616 256.874 396.552 258.087 397.859C259.3 399.179 260.264 400.95 260.978 403.174C261.693 405.409 262.027 408.208 261.98 411.569C261.935 414.789 261.593 417.637 260.955 420.114C260.317 422.603 259.411 424.692 258.24 426.38C257.068 428.08 255.665 429.363 254.031 430.228C252.385 431.093 250.538 431.511 248.491 431.482C246.455 431.454 244.65 431.02 243.075 430.182C241.488 429.355 240.202 428.212 239.216 426.754C238.23 425.296 237.602 423.624 237.333 421.738L241.665 421.798C242.044 423.437 242.807 424.803 243.952 425.897C245.097 426.99 246.628 427.55 248.545 427.577C251.362 427.616 253.598 426.422 255.254 423.994C256.898 421.567 257.757 418.14 257.83 413.713L257.546 413.709C256.869 414.706 256.07 415.553 255.149 416.251C254.216 416.96 253.19 417.502 252.072 417.877C250.954 418.252 249.774 418.431 248.531 418.414C246.448 418.385 244.549 417.837 242.836 416.771C241.122 415.718 239.757 414.272 238.741 412.435C237.725 410.609 237.233 408.525 237.266 406.181C237.297 403.933 237.829 401.88 238.861 400.024C239.893 398.18 241.328 396.72 243.166 395.645C244.992 394.581 247.13 394.078 249.58 394.136ZM249.525 398.042C248.034 398.021 246.691 398.375 245.497 399.104C244.292 399.833 243.337 400.82 242.633 402.065C241.917 403.31 241.548 404.702 241.527 406.241C241.506 407.744 241.824 409.116 242.481 410.356C243.127 411.608 244.03 412.609 245.192 413.359C246.342 414.109 247.662 414.495 249.153 414.516C250.278 414.531 251.329 414.321 252.305 413.885C253.282 413.46 254.143 412.869 254.887 412.11C255.62 411.35 256.2 410.476 256.628 409.488C257.056 408.511 257.278 407.479 257.293 406.39C257.313 404.946 256.995 403.592 256.338 402.328C255.669 401.064 254.748 400.039 253.575 399.253C252.39 398.467 251.04 398.063 249.525 398.042Z" fill="black"/>
<path d="M339.697 369.638C341.444 368.504 343.244 367.83 345.095 367.616C346.946 367.403 348.686 367.628 350.317 368.291C351.947 368.955 353.304 370.035 354.389 371.533L350.815 373.853C349.78 372.563 348.413 371.827 346.715 371.645C345.013 371.48 343.382 371.903 341.823 372.915C340.572 373.727 339.65 374.742 339.058 375.959C338.455 377.183 338.207 378.486 338.315 379.87C338.419 381.27 338.894 382.62 339.738 383.921C340.602 385.251 341.665 386.248 342.927 386.91C344.186 387.589 345.519 387.902 346.924 387.851C348.33 387.799 349.687 387.356 350.994 386.522C351.934 385.926 352.798 385.16 353.588 384.224C354.384 383.298 354.952 382.401 355.291 381.531L359.017 379.706L366.914 395.917L351.067 406.203L348.941 402.926L361.689 394.651L356.923 384.96L356.744 385.076C356.441 385.978 355.924 386.899 355.193 387.839C354.463 388.779 353.586 389.581 352.564 390.245C350.697 391.456 348.744 392.089 346.704 392.143C344.661 392.213 342.723 391.749 340.89 390.751C339.047 389.76 337.485 388.276 336.202 386.301C334.939 384.355 334.248 382.333 334.129 380.237C334.007 378.157 334.419 376.183 335.365 374.313C336.317 372.453 337.761 370.895 339.697 369.638Z" fill="black"/>
<path d="M413.454 288.751L416.806 290.122L434.158 314.485L433.163 316.917L427.97 314.793L428.642 313.15L415.531 294.741L415.268 294.634L407.12 314.552L403.505 313.073L413.454 288.751ZM400.071 301.77L407.992 305.01L409.554 305.648L433.728 315.537L432.142 319.415L398.485 305.648L400.071 301.77Z" fill="black"/>
<path d="M408.837 193.767C408.193 191.514 408.005 189.394 408.274 187.409C408.547 185.435 409.224 183.733 410.305 182.304C411.4 180.882 412.851 179.864 414.658 179.249L415.888 183.551C414.787 183.964 413.925 184.63 413.301 185.547C412.688 186.461 412.317 187.533 412.189 188.764C412.061 189.995 412.189 191.282 412.573 192.625C413.003 194.127 413.645 195.384 414.501 196.395C415.356 197.406 416.345 198.108 417.467 198.501C418.589 198.895 419.765 198.915 420.994 198.564C422.28 198.196 423.321 197.554 424.117 196.636C424.925 195.716 425.432 194.561 425.639 193.173C425.845 191.784 425.694 190.202 425.186 188.427L424.386 185.627L428.141 184.553L428.942 187.353C429.339 188.741 429.938 189.887 430.738 190.791C431.541 191.706 432.483 192.33 433.563 192.661C434.645 193.004 435.802 193 437.031 192.648C438.214 192.31 439.169 191.753 439.896 190.979C440.623 190.205 441.094 189.27 441.31 188.174C441.529 187.09 441.455 185.904 441.087 184.618C440.742 183.412 440.195 182.337 439.445 181.394C438.71 180.46 437.831 179.775 436.808 179.341C435.797 178.904 434.702 178.823 433.525 179.098L432.354 175.001C434.205 174.545 435.968 174.639 437.641 175.28C439.326 175.919 440.794 176.964 442.047 178.416C443.302 179.879 444.218 181.618 444.794 183.632C445.412 185.794 445.505 187.775 445.071 189.573C444.649 191.368 443.845 192.885 442.66 194.122C441.475 195.36 440.057 196.215 438.407 196.687C436.438 197.25 434.612 197.212 432.927 196.573C431.246 195.946 429.885 194.827 428.846 193.216L428.573 193.294C428.84 195.606 428.394 197.599 427.235 199.272C426.088 200.942 424.404 202.095 422.185 202.729C420.284 203.273 418.429 203.243 416.619 202.64C414.824 202.046 413.24 200.984 411.867 199.456C410.495 197.928 409.485 196.032 408.837 193.767Z" fill="black"/>
<path d="M341.098 99.7413L342.975 97.154L360.405 93.564C362.449 93.1452 364.173 92.7434 365.578 92.3586C366.99 91.9642 368.169 91.4883 369.114 90.9309C370.076 90.3709 370.883 89.6405 371.536 88.7397C372.287 87.7048 372.687 86.6282 372.738 85.5098C372.798 84.3984 372.552 83.3274 371.997 82.2968C371.443 81.2663 370.635 80.3654 369.571 79.594C368.44 78.774 367.283 78.293 366.099 78.151C364.932 78.0063 363.816 78.1841 362.752 78.6842C361.697 79.1913 360.763 80.0054 359.949 81.1265L356.557 78.6665C357.808 76.9416 359.304 75.716 361.044 74.9895C362.785 74.2631 364.604 74.0326 366.503 74.2981C368.411 74.5705 370.222 75.3287 371.938 76.5726C373.662 77.8235 374.927 79.2961 375.731 80.9903C376.534 82.6845 376.867 84.4242 376.727 86.2093C376.588 87.9945 375.969 89.6441 374.871 91.1581C374.086 92.2409 373.121 93.1573 371.978 93.9073C370.851 94.6547 369.35 95.3133 367.474 95.8833C365.615 96.4506 363.186 97.0283 360.186 97.6163L348.445 99.8932L348.279 100.123L361.962 110.047L359.669 113.209L341.098 99.7413Z" fill="black"/>
<path d="M252.257 38.3072L253.355 74.6542L248.954 74.7872L247.995 43.0546L247.782 43.061L239.086 49.2214L238.951 44.749L247.855 38.4402L252.257 38.3072Z" fill="black"/>
</g>
</g>
<defs>
<clipPath id="clip0_1_2">
<rect width="500" height="500" fill="white"/>
</clipPath>
</defs>
</svg>
